<?xml version="1.0" standalone="no"?><!DOCTYPE svg PUBLIC "-//W3C//DTD SVG 1.1//EN" "http://www.w3.org/Graphics/SVG/1.1/DTD/svg11.dtd"><svg t="1779499733416" class="icon" viewBox="0 0 1024 1024" version="1.1" xmlns="http://www.w3.org/2000/svg" p-id="1749" xmlns:xlink="http://www.w3.org/1999/xlink" width="24" height="24"><path d="M933.888 258.048L827.392 163.84 718.848 69.632 612.352 163.84l-108.544 94.208h116.736C581.632 501.76 356.352 690.176 100.352 649.216c-12.288-2.048-16.384 14.336-4.096 16.384 319.488 110.592 686.08-71.68 739.328-409.6h98.304v2.048z" fill="#13227a" p-id="1750"></path><path d="M696.32 571.392c-32.768 30.72-69.632 57.344-110.592 79.872v303.104H696.32V571.392zM419.84 954.368h110.592v-276.48c-34.816 14.336-71.68 26.624-110.592 34.816v241.664z m329.728 0H860.16V284.672h-2.048C841.728 370.688 802.816 446.464 751.616 512v442.368h-2.048zM200.704 720.896c-36.864-6.144-73.728-14.336-110.592-26.624v260.096h110.592V720.896zM256 954.368h110.592V722.944c-24.576 2.048-51.2 4.096-75.776 4.096-10.24 0-22.528 0-32.768-2.048v229.376H256z" fill="#13227a" p-id="1751"></path></svg>