<?xml version="1.0" standalone="no"?><!DOCTYPE svg PUBLIC "-//W3C//DTD SVG 1.1//EN" "http://www.w3.org/Graphics/SVG/1.1/DTD/svg11.dtd"><svg t="1683643211114" class="icon" viewBox="0 0 1024 1024" version="1.1" xmlns="http://www.w3.org/2000/svg" p-id="4701" width="24" height="24" xmlns:xlink="http://www.w3.org/1999/xlink"><path d="M838.4 765.866667H183.466667c-76.8 0-138.666667-61.866667-138.666667-138.666667V226.133333C44.8 149.333333 106.666667 87.466667 183.466667 87.466667h654.933333c76.8 0 138.666667 61.866667 138.666667 138.666666v401.066667c0 76.8-61.866667 138.666667-138.666667 138.666667zM183.466667 151.466667c-40.533333 0-74.666667 34.133333-74.666667 74.666666v401.066667c0 40.533333 34.133333 74.666667 74.666667 74.666667h654.933333c40.533333 0 74.666667-34.133333 74.666667-74.666667V226.133333c0-40.533333-34.133333-74.666667-74.666667-74.666666H183.466667z" fill="#13227a" p-id="4702"></path><path d="M512 921.6c-17.066667 0-32-14.933333-32-32v-128c0-17.066667 14.933333-32 32-32s32 14.933333 32 32v128c0 17.066667-14.933333 32-32 32z" fill="#13227a" p-id="4703"></path><path d="M768 936.533333H256c-17.066667 0-32-14.933333-32-32s14.933333-32 32-32h512c17.066667 0 32 14.933333 32 32s-14.933333 32-32 32zM253.866667 595.2c-8.533333 0-17.066667-4.266667-23.466667-8.533333-12.8-12.8-12.8-32 0-44.8l174.933333-172.8c21.333333-21.333333 55.466667-21.333333 74.666667 0l83.2 83.2 181.333333-181.333334c12.8-12.8 32-12.8 44.8 0s12.8 32 0 44.8l-187.733333 187.733334c-10.666667 10.666667-23.466667 14.933333-38.4 14.933333s-27.733333-6.4-38.4-14.933333l-83.2-83.2-166.4 166.4c-2.133333 4.266667-10.666667 8.533333-21.333333 8.533333z" fill="#13227a" p-id="4704"></path></svg>