<svg t="1752799775009" class="icon" viewBox="0 0 1024 1024" version="1.1" xmlns="http://www.w3.org/2000/svg" p-id="5940" width="24" height="24"><path d="M807.332674 40.447663c35.728769 1.348255 72.131666-5.393022 109.882817 8.76366 10.111916 11.460171 21.572087 24.942725 33.706386 37.751152v937.037525H74.555847v-930.296248c3.370639-10.111916 3.370639-12.808427 8.089532-18.201448 2.696511-2.696511 4.718894-4.718894 6.741277-7.415405 20.897959-25.616853 40.447663-29.661619 68.0869-28.987491 20.897959 0.674128 42.470046 0 63.368005 0h65.390388m262.235682 0h117.97235m-314.817643 0h124.713627m-310.098749 56.626728c-10.786043 5.393022-20.897959 10.786043-28.987492 14.830809-8.089533 18.201448-16.179065 33.032258-16.179065 52.581962 0.674128 246.730744 0.674128 494.135616 0.674128 740.86636 0 29.661619 7.415405 55.278473 37.751152 66.064516h699.744569c26.965109-6.741277 36.402897-22.246215 43.818301-37.751152V130.780777c-13.482554-22.246215-13.482554-22.246215-37.751152-36.402897" p-id="5941" fill="#13227a"></path><path d="M331.398506 446.946675L289.602588 424.700461l-41.795918 21.572087 8.089532-45.840685-33.032258-33.032258 46.514813-6.741277 20.897959-41.795919 20.897959 41.795919 46.514812 7.415405-34.380513 32.35813zM331.398506 642.443713L289.602588 620.197498l-41.795918 21.572087 8.089532-45.840684-33.032258-33.032258 46.514813-6.741278 20.897959-41.795918 20.897959 41.795918 46.514812 7.415405-34.380513 32.358131zM331.398506 831.199473l-41.795918-22.246214-41.795918 21.572087 8.089532-45.840685-33.032258-33.032258 46.514813-6.741277 20.897959-41.795919 20.897959 41.795919 46.514812 7.415405-34.380513 32.35813zM433.191791 349.872284h377.511521V411.217907h-377.511521zM433.191791 545.369322H681.270791V606.714944H433.191791zM433.191791 748.281764h377.511521v61.345622h-377.511521zM290.276716 4.044766h59.997366v132.80316H290.276716z" p-id="5942" fill="#13227a"></path><path d="M290.276716 39.099408h59.997366v55.9526H290.276716z" fill="#13227a" p-id="5943"></path><path d="M485.773753 4.044766h59.997367v132.80316H485.773753z" p-id="5944" fill="#13227a"></path><path d="M485.773753 39.099408h59.997367v55.9526H485.773753z" fill="#13227a" p-id="5945"></path><path d="M667.788236 2.022383h59.997367V134.825543H667.788236z" p-id="5946" fill="#13227a"></path><path d="M667.788236 37.077024h59.997367v55.952601H667.788236z" fill="#13227a" p-id="5947"></path></svg>