<?xml version="1.0" standalone="no"?><!DOCTYPE svg PUBLIC "-//W3C//DTD SVG 1.1//EN" "http://www.w3.org/Graphics/SVG/1.1/DTD/svg11.dtd"><svg t="1677394603505" class="icon" viewBox="0 0 1024 1024" version="1.1" xmlns="http://www.w3.org/2000/svg" p-id="3736" width="32" height="32" xmlns:xlink="http://www.w3.org/1999/xlink"><path d="M562.358857 45.787429l368.384 340.114285a73.142857 73.142857 0 0 1 4.132572 103.314286l-2.048 2.121143-23.149715 21.394286 21.065143 19.419428a73.142857 73.142857 0 0 1 4.132572 103.350857l-2.048 2.121143-370.468572 342.089143a73.142857 73.142857 0 0 1-99.218286 0L94.793143 639.634286a73.142857 73.142857 0 0 1-4.132572-103.350857l2.011429-2.084572 23.113143-21.430857-20.992-19.382857a73.142857 73.142857 0 0 1-4.132572-103.387429l2.011429-2.084571 370.468571-342.125714a73.142857 73.142857 0 0 1 99.218286 0z m320.365714 491.812571l-320.365714 295.862857c-9.362286 8.630857-20.443429 14.372571-32.073143 17.261714v107.373715a36.425143 36.425143 0 0 0 3.913143-2.486857l3.364572-2.779429 368.384-340.041143 2.048-2.084571a36.571429 36.571429 0 0 0 0.914285-48.603429l-2.962285-3.072-23.222858-21.430857z m-419.584 295.862857L142.774857 537.6l-23.186286 21.394286a36.571429 36.571429 0 0 0-2.962285 50.688l2.962285 3.072 368.347429 340.041143c1.828571 1.682286 3.730286 3.108571 5.741714 4.352v-106.861715a72.886857 72.886857 0 0 1-30.537143-16.896z m28.16-617.252571l-3.364571 2.742857-318.244571 293.814857 318.244571 293.778286a36.571429 36.571429 0 0 0 46.262857 2.779428l3.364572-2.779428 318.208-293.778286-318.171429-293.814857a36.571429 36.571429 0 0 0-46.299429-2.742857z m0-146.285715l-3.364571 2.742858-368.347429 340.114285a36.571429 36.571429 0 0 0-2.962285 50.651429l2.962285 3.072 23.149715 21.394286 320.402285-295.826286c8.96-8.265143 19.492571-13.897143 30.573715-16.859429V68.352l-2.413715 1.572571z m38.985143-2.486857V174.811429c11.629714 2.852571 22.710857 8.630857 32.073143 17.261714l320.365714 295.789714 23.222858-21.357714 2.048-2.084572a36.571429 36.571429 0 0 0 0.914285-48.603428l-2.962285-3.072-368.384-340.077714a36.608 36.608 0 0 0-7.314286-5.229715z" fill="#13227a" p-id="3737"></path></svg>